<?xml version="1.0" standalone="no"?>
<!DOCTYPE svg PUBLIC "-//W3C//DTD SVG 20010904//EN"
 "http://www.w3.org/TR/2001/REC-SVG-20010904/DTD/svg10.dtd">
<svg version="1.0" xmlns="http://www.w3.org/2000/svg"
 width="512.000000pt" height="512.000000pt" viewBox="0 0 512.000000 512.000000"
 preserveAspectRatio="xMidYMid meet">

<g transform="translate(0.000000,512.000000) scale(0.100000,-0.100000)"
fill="#776B5D" stroke="none">
<path d="M590 4954 c-145 -38 -303 -161 -365 -284 -74 -145 -69 -100 -73 -756
-2 -500 -1 -602 12 -665 43 -205 187 -366 396 -441 65 -23 66 -23 651 -26 656
-3 674 -2 809 64 150 74 279 245 310 409 8 42 10 242 8 655 -3 585 -4 596 -25
661 -29 85 -90 179 -161 246 -63 61 -184 124 -270 142 -35 7 -254 11 -645 10
-484 0 -602 -3 -647 -15z"/>
<path d="M3225 4956 c-121 -29 -248 -113 -322 -211 -60 -79 -80 -122 -104
-212 -18 -71 -19 -115 -19 -648 0 -362 4 -593 11 -631 38 -212 221 -402 439
-455 43 -11 183 -14 645 -14 650 0 643 -1 775 63 101 49 201 149 253 252 67
134 68 151 65 814 -4 655 0 611 -73 756 -40 78 -163 199 -245 238 -129 62
-125 62 -780 61 -432 0 -609 -4 -645 -13z"/>
<path d="M648 2330 c-136 -24 -273 -99 -356 -197 -23 -26 -58 -79 -77 -118
-65 -128 -66 -148 -63 -809 4 -656 -1 -611 73 -756 40 -78 163 -199 245 -238
131 -63 125 -63 802 -60 613 3 613 3 675 26 170 64 309 205 366 371 21 65 22
76 25 656 2 398 -1 611 -8 655 -18 103 -81 223 -159 301 -76 75 -131 110 -234
147 l-72 26 -585 2 c-322 1 -606 -1 -632 -6z"/>
<path d="M3275 2330 c-186 -29 -352 -152 -434 -322 -22 -46 -45 -112 -51 -148
-7 -44 -10 -257 -8 -655 3 -580 4 -591 25 -656 58 -168 194 -306 369 -372 58
-22 65 -22 672 -25 677 -3 671 -3 802 60 94 45 209 162 255 259 63 134 65 151
65 774 0 624 -2 646 -65 771 -86 169 -242 282 -436 313 -74 12 -1116 13 -1194
1z"/>
</g>
</svg>
