<?xml version="1.0" standalone="no"?>
<!DOCTYPE svg PUBLIC "-//W3C//DTD SVG 20010904//EN"
 "http://www.w3.org/TR/2001/REC-SVG-20010904/DTD/svg10.dtd">
<svg version="1.0" xmlns="http://www.w3.org/2000/svg"
 width="64.000000pt" height="64.000000pt" viewBox="0 0 64.000000 64.000000"
 preserveAspectRatio="xMidYMid meet">

<g transform="translate(0.000000,64.000000) scale(0.100000,-0.100000)"
fill="#776B5D" stroke="none">
<path d="M66 574 c-14 -13 -16 -48 -16 -223 0 -129 4 -220 11 -241 19 -54 49
-60 288 -60 177 0 212 2 225 16 19 18 19 20 6 45 -10 18 -23 19 -230 19 -172
0 -220 3 -220 13 0 7 31 44 70 82 l70 69 33 -32 c18 -18 39 -32 46 -32 7 0 48
34 91 76 46 44 81 71 85 65 10 -18 43 -13 55 8 13 25 13 87 0 112 -9 15 -22
19 -70 19 -67 0 -86 -16 -67 -57 9 -21 5 -29 -38 -73 -27 -28 -54 -50 -60 -50
-7 0 -22 11 -35 25 -13 14 -32 25 -42 25 -11 0 -46 -25 -79 -57 l-59 -56 0
151 c0 139 -2 152 -19 162 -25 13 -27 13 -45 -6z"/>
</g>
</svg>
