<?xml version="1.0" encoding="UTF-8"?>
<svg version="1.1" xmlns="http://www.w3.org/2000/svg" fill="#776B5D" width="48" height="48">
<path d="M0 0 C0.87527344 -0.01417969 1.75054687 -0.02835937 2.65234375 -0.04296875 C5.0625 0.1875 5.0625 0.1875 8.0625 2.1875 C8.0625 2.8475 8.0625 3.5075 8.0625 4.1875 C8.7225 4.1875 9.3825 4.1875 10.0625 4.1875 C10.0625 3.5275 10.0625 2.8675 10.0625 2.1875 C14.29802856 -0.63618571 18.08727314 -0.47903757 23.0625 0.1875 C25.99673195 1.98396854 27.53455355 3.1316071 29.0625 6.1875 C29.30078125 8.140625 29.30078125 8.140625 29.375 10.4375 C29.43107422 11.55898438 29.43107422 11.55898438 29.48828125 12.703125 C28.37572243 19.19475263 22.57907375 24.09583122 18.125 28.625 C17.51720703 29.27404297 16.90941406 29.92308594 16.28320312 30.59179688 C15.68572266 31.19958984 15.08824219 31.80738281 14.47265625 32.43359375 C13.67033569 33.26395142 13.67033569 33.26395142 12.85180664 34.11108398 C11.0625 35.1875 11.0625 35.1875 8.58056641 35.06420898 C5.76412018 34.08361383 4.43525161 33.03728701 2.36328125 30.9140625 C1.71166016 30.2540625 1.06003906 29.5940625 0.38867188 28.9140625 C-0.6080957 27.87378906 -0.6080957 27.87378906 -1.625 26.8125 C-2.30111328 26.12671875 -2.97722656 25.4409375 -3.67382812 24.734375 C-11.22592023 17.00944895 -11.22592023 17.00944895 -11.3125 11.3125 C-11.24810826 7.6368051 -11.03885249 6.3530424 -9.0625 3.125 C-5.92717543 0.26632172 -4.15738681 0.03052413 0 0 Z M-5.3125 5.8125 C-7.42850728 8.90512603 -7.35763408 10.48849344 -6.9375 14.1875 C-5.22016647 16.84544853 -5.22016647 16.84544853 -2.8125 19.1875 C-1.99652344 20.04085938 -1.18054688 20.89421875 -0.33984375 21.7734375 C0.45292969 22.57007812 1.24570312 23.36671875 2.0625 24.1875 C2.70058594 24.83976562 3.33867187 25.49203125 3.99609375 26.1640625 C5.33636094 27.52040004 6.69677813 28.85679664 8.0625 30.1875 C12.06034427 28.58646758 14.73612191 25.77634625 17.6875 22.75 C18.42226563 22.01426758 18.42226563 22.01426758 19.171875 21.26367188 C23.5717755 16.94316536 23.5717755 16.94316536 25.4375 11.25 C25.29458332 8.13583325 25.29458332 8.13583325 23.4375 5.8125 C20.35063568 3.70043494 18.7342087 3.57554855 15.0625 4.1875 C13.68939293 5.47983607 12.35215176 6.81187146 11.0625 8.1875 C9.7425 8.1875 8.4225 8.1875 7.0625 8.1875 C6.44375 7.5275 5.825 6.8675 5.1875 6.1875 C3.17311932 3.92004771 3.17311932 3.92004771 0.0625 3.6875 C-2.99224794 3.98011242 -2.99224794 3.98011242 -5.3125 5.8125 Z " fill="#000000" transform="translate(14.9375,6.8125)"/>
</svg>
